<mxfile host="Electron" agent="Mozilla/5.0 (Windows NT 10.0; Win64; x64) AppleWebKit/537.36 (KHTML, like Gecko) draw.io/27.0.5 Chrome/134.0.6998.205 Electron/35.3.0 Safari/537.36" version="27.0.5">
  <diagram name="第 1 页" id="mjt4GNUuf5m6gaF6J6LP">
    <mxGraphModel dx="1092" dy="1187" grid="1" gridSize="10" guides="1" tooltips="1" connect="1" arrows="1" fold="1" page="1" pageScale="1" pageWidth="827" pageHeight="1169" math="0" shadow="0">
      <root>
        <mxCell id="0" />
        <mxCell id="1" parent="0" />
        <mxCell id="qYSsCx-cM0t4ONHwClai-15" value="" style="group" vertex="1" connectable="0" parent="1">
          <mxGeometry x="160" y="240" width="620" height="350" as="geometry" />
        </mxCell>
        <mxCell id="qYSsCx-cM0t4ONHwClai-1" value="" style="rounded=1;whiteSpace=wrap;html=1;fillColor=none;strokeColor=#9673A6;dashed=1;" vertex="1" parent="qYSsCx-cM0t4ONHwClai-15">
          <mxGeometry y="40" width="620" height="310" as="geometry" />
        </mxCell>
        <mxCell id="qYSsCx-cM0t4ONHwClai-4" value="" style="rounded=1;whiteSpace=wrap;html=1;fillColor=#9673A6;opacity=80;" vertex="1" parent="qYSsCx-cM0t4ONHwClai-15">
          <mxGeometry x="30" y="70" width="240" height="250" as="geometry" />
        </mxCell>
        <mxCell id="qYSsCx-cM0t4ONHwClai-6" value="" style="rounded=1;whiteSpace=wrap;html=1;fillColor=#9673A6;opacity=80;" vertex="1" parent="qYSsCx-cM0t4ONHwClai-15">
          <mxGeometry x="360" y="70" width="240" height="250" as="geometry" />
        </mxCell>
        <mxCell id="qYSsCx-cM0t4ONHwClai-7" value="&lt;div style=&quot;color: rgb(216, 222, 233); font-family: Consolas, &amp;quot;Courier New&amp;quot;, monospace; font-size: 14px; line-height: 19px; white-space: pre;&quot;&gt;&lt;span&gt;&amp;nbsp;&lt;span style=&quot;color: rgb(239, 176, 128); font-weight: bold;&quot;&gt;checkUserRolePermission&lt;/span&gt;()&lt;/span&gt;&lt;/div&gt;" style="rounded=0;whiteSpace=wrap;html=1;fillColor=#9673A6;" vertex="1" parent="qYSsCx-cM0t4ONHwClai-15">
          <mxGeometry x="54" y="120" width="200" height="60" as="geometry" />
        </mxCell>
        <mxCell id="qYSsCx-cM0t4ONHwClai-8" value="&lt;div style=&quot;color: rgb(216, 222, 233); font-family: Consolas, &amp;quot;Courier New&amp;quot;, monospace; font-size: 14px; line-height: 19px; white-space-collapse: preserve;&quot;&gt;&lt;span style=&quot;color: rgb(135, 195, 255);&quot;&gt;WpsSidMiddleware&lt;/span&gt;&lt;/div&gt;" style="text;html=1;align=center;verticalAlign=middle;resizable=0;points=[];autosize=1;strokeColor=none;fillColor=none;" vertex="1" parent="qYSsCx-cM0t4ONHwClai-15">
          <mxGeometry x="405" y="80" width="150" height="30" as="geometry" />
        </mxCell>
        <mxCell id="qYSsCx-cM0t4ONHwClai-9" value="&lt;div style=&quot;color: rgb(216, 222, 233); font-family: Consolas, &amp;quot;Courier New&amp;quot;, monospace; font-size: 14px; line-height: 19px; white-space-collapse: preserve;&quot;&gt;&lt;span style=&quot;color: rgb(135, 195, 255);&quot;&gt;AdminUserRoleMiddleware&lt;/span&gt;&lt;/div&gt;" style="text;html=1;align=center;verticalAlign=middle;resizable=0;points=[];autosize=1;strokeColor=none;fillColor=none;" vertex="1" parent="qYSsCx-cM0t4ONHwClai-15">
          <mxGeometry x="54" y="80" width="200" height="30" as="geometry" />
        </mxCell>
        <mxCell id="qYSsCx-cM0t4ONHwClai-10" value="&lt;div style=&quot;color: rgb(216, 222, 233); font-family: Consolas, &amp;quot;Courier New&amp;quot;, monospace; font-size: 14px; line-height: 19px; white-space: pre;&quot;&gt;&lt;span style=&quot;color: rgba(0, 0, 0, 0); font-family: monospace; font-size: 0px; text-align: start; white-space-collapse: collapse;&quot;&gt;%3CmxGraphModel%3E%3Croot%3E%3CmxCell%20id%3D%220%22%2F%3E%3CmxCell%20id%3D%221%22%20parent%3D%220%22%2F%3E%3CmxCell%20id%3D%222%22%20value%3D%22%26lt%3Bdiv%20style%3D%26quot%3Bcolor%3A%20rgb(216%2C%20222%2C%20233)%3B%20font-family%3A%20Consolas%2C%20%26amp%3Bquot%3BCourier%20New%26amp%3Bquot%3B%2C%20monospace%3B%20font-size%3A%2014px%3B%20line-height%3A%2019px%3B%20white-space%3A%20pre%3B%26quot%3B%26gt%3B%26lt%3Bspan%26gt%3B%26amp%3Bnbsp%3B%26lt%3Bspan%20style%3D%26quot%3Bcolor%3A%20rgb(239%2C%20176%2C%20128)%3B%20font-weight%3A%20bold%3B%26quot%3B%26gt%3BcheckUserRolePermission%26lt%3B%2Fspan%26gt%3B()%26lt%3B%2Fspan%26gt%3B%26lt%3B%2Fdiv%26gt%3B%22%20style%3D%22rounded%3D0%3BwhiteSpace%3Dwrap%3Bhtml%3D1%3BfillColor%3D%239673A6%3B%22%20vertex%3D%221%22%20parent%3D%221%22%3E%3CmxGeometry%20x%3D%22214%22%20y%3D%22360%22%20width%3D%22200%22%20height%3D%2260%22%20as%3D%22geometry%22%2F%3E%3C%2FmxCell%3E%3C%2Froot%3E%3C%2FmxGraphModel%3E&lt;/span&gt;&lt;/div&gt;" style="rounded=0;whiteSpace=wrap;html=1;fillColor=#9673A6;" vertex="1" parent="qYSsCx-cM0t4ONHwClai-15">
          <mxGeometry x="380" y="120" width="200" height="60" as="geometry" />
        </mxCell>
        <mxCell id="qYSsCx-cM0t4ONHwClai-11" value="&lt;div style=&quot;color: rgb(216, 222, 233); font-family: Consolas, &amp;quot;Courier New&amp;quot;, monospace; font-size: 14px; line-height: 19px; white-space-collapse: preserve;&quot;&gt;&lt;span&gt;&lt;span style=&quot;color: rgb(239, 176, 128); font-weight: bold;&quot;&gt;checkWpsSid&lt;/span&gt;()&lt;/span&gt;&lt;/div&gt;" style="text;html=1;align=center;verticalAlign=middle;resizable=0;points=[];autosize=1;strokeColor=none;fillColor=none;" vertex="1" parent="qYSsCx-cM0t4ONHwClai-15">
          <mxGeometry x="420" y="135" width="120" height="30" as="geometry" />
        </mxCell>
        <mxCell id="qYSsCx-cM0t4ONHwClai-12" value="1.获取wpsID&lt;div&gt;&lt;br&gt;&lt;div&gt;2.获取用户信息&lt;/div&gt;&lt;/div&gt;" style="text;html=1;align=center;verticalAlign=middle;resizable=0;points=[];autosize=1;strokeColor=none;fillColor=none;" vertex="1" parent="qYSsCx-cM0t4ONHwClai-15">
          <mxGeometry x="425" y="200" width="110" height="60" as="geometry" />
        </mxCell>
        <mxCell id="qYSsCx-cM0t4ONHwClai-13" value="1.判断api是否为后台管理&lt;div&gt;&lt;br&gt;&lt;div&gt;2.获取用户ID、公司ID,判断权限&lt;/div&gt;&lt;/div&gt;" style="text;html=1;align=center;verticalAlign=middle;resizable=0;points=[];autosize=1;strokeColor=none;fillColor=none;" vertex="1" parent="qYSsCx-cM0t4ONHwClai-15">
          <mxGeometry x="54" y="200" width="190" height="60" as="geometry" />
        </mxCell>
        <mxCell id="qYSsCx-cM0t4ONHwClai-14" value="ecisaccountsync\src\middleware" style="text;html=1;align=center;verticalAlign=middle;resizable=0;points=[];autosize=1;strokeColor=none;fillColor=none;" vertex="1" parent="qYSsCx-cM0t4ONHwClai-15">
          <mxGeometry x="210" width="200" height="30" as="geometry" />
        </mxCell>
      </root>
    </mxGraphModel>
  </diagram>
</mxfile>
